<svg width="30" height="31" viewBox="0 0 30 31" fill="none" xmlns="http://www.w3.org/2000/svg">
<g filter="url(#filter0_d_2209_253)">
<path fill-rule="evenodd" clip-rule="evenodd" d="M14.75 22.75C8.81294 22.75 4 17.9371 4 12C4 6.06294 8.81294 1.25 14.75 1.25C20.6871 1.25 25.5 6.06294 25.5 12C25.5 17.9371 20.6871 22.75 14.75 22.75ZM19.23 9.37756C19.7145 9.11257 19.8925 8.50493 19.6275 8.02038C19.3625 7.53582 18.7549 7.35782 18.2704 7.62282C16.4417 8.62286 14.9296 10.5529 13.9129 12.1096C13.5372 12.685 13.2162 13.2297 12.9594 13.6911C12.7198 13.4587 12.4826 13.257 12.2704 13.0892C11.9927 12.8697 11.7428 12.6965 11.5606 12.5772L11.2456 12.3815C10.7659 12.1079 10.1551 12.275 9.88152 12.7548C9.60797 13.2344 9.77493 13.8449 10.2544 14.1187L10.4647 14.2502C10.6075 14.3437 10.8076 14.4823 11.03 14.6581C11.4875 15.0198 11.9813 15.494 12.292 16.0135C12.4827 16.3323 12.8344 16.5191 13.2053 16.4987C13.5761 16.4782 13.9051 16.2536 14.0596 15.9159L14.1579 15.7105C14.2256 15.5721 14.327 15.3697 14.459 15.1204C14.7235 14.6207 15.1081 13.9372 15.5874 13.2032C16.5708 11.6975 17.8586 10.1275 19.23 9.37756Z" fill="#F3541C"/>
</g>
<defs>
<filter id="filter0_d_2209_253" x="-1.25" y="0" width="32" height="32" filterUnits="userSpaceOnUse" color-interpolation-filters="sRGB">
<feFlood flood-opacity="0" result="BackgroundImageFix"/>
<feColorMatrix in="SourceAlpha" type="matrix" values="0 0 0 0 0 0 0 0 0 0 0 0 0 0 0 0 0 0 127 0" result="hardAlpha"/>
<feOffset dy="4"/>
<feGaussianBlur stdDeviation="2"/>
<feComposite in2="hardAlpha" operator="out"/>
<feColorMatrix type="matrix" values="0 0 0 0 0 0 0 0 0 0 0 0 0 0 0 0 0 0 0.25 0"/>
<feBlend mode="normal" in2="BackgroundImageFix" result="effect1_dropShadow_2209_253"/>
<feBlend mode="normal" in="SourceGraphic" in2="effect1_dropShadow_2209_253" result="shape"/>
</filter>
</defs>
</svg>
